<?xml version="1.0" standalone="no"?><!DOCTYPE svg PUBLIC "-//W3C//DTD SVG 1.1//EN" "http://www.w3.org/Graphics/SVG/1.1/DTD/svg11.dtd"><svg t="1617070697587" class="icon" viewBox="0 0 1024 1024" version="1.1" xmlns="http://www.w3.org/2000/svg" p-id="17015" width="64" height="64" xmlns:xlink="http://www.w3.org/1999/xlink"><defs><style type="text/css"></style></defs><path d="M663.862857 355.309714a116.242286 116.242286 0 0 1-33.554286-17.810285c-9.161143-7.021714-19.382857-17.462857-30.793142-31.36-20.004571 13.458286-48.822857 22.345143-86.418286 27.008-41.344 5.138286-81.462857 11.099429-120.338286 17.865142a10.386286 10.386286 0 0 1-2.578286 0.128 15.542857 15.542857 0 0 1-3.053714 5.595429c-15.104 17.664-22.217143 32.457143-22.217143 43.958857 0 9.6 8.429714 21.028571 27.483429 33.737143a15.542857 15.542857 0 0 1 5.76 7.04c11.739429 28.617143 22.253714 48.036571 30.939428 57.801143 8.704 9.819429 20.260571 18.322286 34.742858 25.508571a15.542857 15.542857 0 0 1 8.301714 17.334857l-7.405714 33.115429a15.542857 15.542857 0 0 1-1.462858 3.931429l60.105143 51.620571 63.762286-54.765714-0.036571-0.091429-8.996572-33.133714a15.542857 15.542857 0 0 1 8.923429-18.395429c14.884571-6.326857 27.026286-14.738286 36.571428-25.252571 9.325714-10.24 18.614857-29.165714 27.318857-56.502857a15.542857 15.542857 0 0 1 7.387429-8.96c19.675429-10.660571 28.178286-21.595429 28.178286-32.987429 0-13.641143-6.729143-28.068571-21.083429-43.465143a15.542857 15.542857 0 0 1-1.536-1.92z m-6.253714-25.051428c-18.56-78.72-63.451429-116.297143-137.179429-116.297143-73.526857 0-115.053714 37.229714-127.396571 115.949714 38.034286-6.546286 77.184-12.342857 117.504-17.334857 39.68-4.937143 67.693714-14.665143 84.022857-28.672a10.368 10.368 0 0 1 14.921143 1.481143c13.019429 16.676571 24.228571 28.580571 33.462857 35.657143 4.571429 3.492571 9.453714 6.582857 14.665143 9.197714z m-53.467429 258.505143l-74.002285 63.561142a10.368 10.368 0 0 1-13.531429 0l-71.954286-61.824c-50.157714 20.022857-85.430857 38.582857-105.508571 55.222858a239.36 239.36 0 0 0-38.4 40.265142 67.419429 67.419429 0 0 0-13.622857 40.649143v83.382857h482.980571l3.346286-80.109714a67.419429 67.419429 0 0 0-15.963429-46.445714 381.202286 381.202286 0 0 0-37.741714-38.089143c-23.350857-20.717714-61.933714-39.753143-115.602286-56.612571zM520.411429 182.857143c94.025143 0 151.972571 53.650286 170.898285 156.653714 17.261714 19.675429 26.276571 40.118857 26.276572 61.184 0 22.930286-13.714286 42.057143-38.948572 57.216-9.435429 28.214857-19.931429 48.859429-32.018285 62.171429a129.499429 129.499429 0 0 1-35.108572 27.062857l3.364572 12.379428c56.777143 17.974857 98.56 38.674286 125.494857 62.573715a411.977143 411.977143 0 0 1 40.832 41.216 98.56 98.56 0 0 1 23.332571 67.894857l-3.986286 95.030857a15.542857 15.542857 0 0 1-15.542857 14.902857h-513.462857a15.542857 15.542857 0 0 1-15.561143-15.542857v-98.962286a98.56 98.56 0 0 1 19.913143-59.410285 270.464 270.464 0 0 1 43.373714-45.476572c23.515429-19.474286 62.354286-39.771429 116.882286-61.366857l3.017143-13.549714a136.009143 136.009143 0 0 1-33.371429-26.88c-11.008-12.416-22.381714-33.060571-34.651428-62.354286-24.283429-17.170286-37.357714-35.968-37.357714-56.905143 0-19.017143 9.069714-39.04 26.496-60.397714 11.245714-103.277714 65.737143-157.44 160.128-157.44z" fill="#2c2c2c" p-id="17016"></path></svg>