<?xml version="1.0" standalone="no"?><!DOCTYPE svg PUBLIC "-//W3C//DTD SVG 1.1//EN" "http://www.w3.org/Graphics/SVG/1.1/DTD/svg11.dtd"><svg t="1617072017870" class="icon" viewBox="0 0 1024 1024" version="1.1" xmlns="http://www.w3.org/2000/svg" p-id="19533" width="64" height="64" xmlns:xlink="http://www.w3.org/1999/xlink"><defs><style type="text/css"></style></defs><path d="M882.78857422 543.80541975H621.01184083V501.28833015H402.98815917v42.43469199H141.21142578V331.87915056c0-46.80175797 39.05639672-84.70459017 87.25891137-84.70459018h130.8471679V204.65747078c0-35.10131812 29.25109855-63.52844262 65.42358358-63.52844262h174.51782274c36.17248503 0 65.42358431 28.42712378 65.42358359 63.52844262v42.43469198h130.84716789c48.20251465 0 87.25891137 37.9028322 87.25891137 84.70459017v211.92626921zM882.78857422 586.15771484v211.84387231C882.78857422 844.88574202 843.7321775 882.78857422 795.52966285 882.78857422H228.55273405C180.2678225 882.78857422 141.21142578 844.88574202 141.21142578 798.00158715v-211.76147468h261.7767334v42.26989746h218.02368164V586.15771484H882.78857422zM621.01184083 247.17456038V204.65747078A21.50573731 21.50573731 0 0 0 599.34130827 183.56372087H424.74108863a21.50573731 21.50573731 0 0 0-21.75292945 21.17614753v42.43469198h218.02368164z" p-id="19534"></path></svg>