<?xml version="1.0" standalone="no"?><!DOCTYPE svg PUBLIC "-//W3C//DTD SVG 1.1//EN" "http://www.w3.org/Graphics/SVG/1.1/DTD/svg11.dtd"><svg t="1617070284564" class="icon" viewBox="0 0 1024 1024" version="1.1" xmlns="http://www.w3.org/2000/svg" p-id="5919" width="48" height="48" xmlns:xlink="http://www.w3.org/1999/xlink"><defs><style type="text/css"></style></defs><path d="M581.12 659.2c1.472-0.96 17.728-11.648 22.464-14.656a215.168 215.168 0 0 1 23.296-13.184c51.2-24.32 96-7.104 155.2 65.728a119.296 119.296 0 0 1 33.408 120.704 146.432 146.432 0 0 1-67.136 67.712c-2.368 1.472-23.232 14.208-28.608 17.664-84.352 54.592-277.696-70.4-416.768-284.096S127.488 176.512 212.928 121.088l11.264-7.488 12.224-8.384a136.448 136.448 0 0 1 103.68-35.2A126.4 126.4 0 0 1 424.32 147.648c49.728 97.984 38.72 144.448-25.216 186.752-4.608 3.136-20.928 13.44-22.464 14.464-15.68 10.176 10.88 78.336 72.576 173.12 62.464 96 114.624 148.288 131.776 137.216z" p-id="5920"></path></svg>