<?xml version="1.0" standalone="no"?><!DOCTYPE svg PUBLIC "-//W3C//DTD SVG 1.1//EN" "http://www.w3.org/Graphics/SVG/1.1/DTD/svg11.dtd"><svg t="1617070419072" class="icon" viewBox="0 0 1024 1024" version="1.1" xmlns="http://www.w3.org/2000/svg" p-id="7508" width="48" height="48" xmlns:xlink="http://www.w3.org/1999/xlink"><defs><style type="text/css"></style></defs><path d="M128 683l239.3-171L128 341l-14-10-50-35.7v433.3l50-35.7 14-9.9z m384-146.3l384-274.3 8-5.7 47-33.5c-11.2-18.7-31.6-31.2-55-31.2H128c-21.5 0-40.5 10.6-52.1 26.8l52.1 43.6 384 274.3z m89.6 14.6l-89.6 64-89.6-64L128 761.6l-14 11.5-38.5 31.5C87 821.2 106.3 832 128 832h768c23.5 0 44-12.6 55.1-31.4l-55.1-39-294.4-210.3zM896 341L656.6 512 896 683l64 45.7V295.3L896 341z" fill="#47444F" p-id="7509"></path></svg>